# Blender 4.1.1
# www.blender.org
o f_3_rigid
v 0.030053 0.006000 -0.008582
v 0.028820 0.006000 -0.009356
v 0.024100 0.006000 -0.005600
v 0.024100 0.006000 0.005600
v 0.008900 0.006000 0.005600
v 0.004500 0.006000 0.010000
v 0.026000 0.006000 0.010000
v 0.027446 0.006000 0.009837
v 0.028820 0.006000 0.009356
v 0.008900 0.006000 -0.005600
v 0.004500 0.006000 -0.007900
v 0.004500 0.006000 0.007900
v 0.027446 0.006000 -0.009837
v 0.026000 0.006000 -0.010000
v 0.004500 0.006000 -0.010000
v 0.030053 0.006000 0.008582
v 0.031082 0.006000 0.007553
v 0.031856 0.006000 0.006320
v 0.032337 0.006000 0.004946
v 0.032500 0.006000 0.003500
v 0.032500 0.006000 -0.003500
v 0.032337 0.006000 -0.004946
v 0.031856 0.006000 -0.006320
v 0.031082 0.006000 -0.007553
v -0.001260 0.004320 -0.007900
v 0.004500 -0.000000 -0.007900
v -0.002427 0.003790 -0.007900
v 0.003182 -0.003182 -0.007900
v -0.004453 0.000645 -0.007900
v 0.002250 -0.003897 -0.007900
v 0.001165 -0.004347 -0.007900
v 0.003897 -0.002250 -0.007900
v 0.004347 -0.001165 -0.007900
v -0.003397 0.002952 -0.007900
v -0.004091 0.001875 -0.007900
v 0.000000 -0.004500 -0.007900
v -0.004455 -0.000636 -0.007900
v -0.004095 -0.001866 -0.007900
v -0.003402 -0.002945 -0.007900
v -0.002434 -0.003785 -0.007900
v -0.001269 -0.004317 -0.007900
v -0.001260 0.004320 0.007900
v 0.004500 0.000000 0.007900
v 0.004347 -0.001165 0.007900
v -0.004453 0.000645 0.007900
v -0.004091 0.001875 0.007900
v -0.003397 0.002952 0.007900
v -0.002427 0.003790 0.007900
v 0.003897 -0.002250 0.007900
v 0.003182 -0.003182 0.007900
v 0.002250 -0.003897 0.007900
v 0.001165 -0.004347 0.007900
v 0.000000 -0.004500 0.007900
v -0.004455 -0.000636 0.007900
v -0.001269 -0.004317 0.007900
v -0.002434 -0.003785 0.007900
v -0.003402 -0.002945 0.007900
v -0.004095 -0.001866 0.007900
v 0.026000 -0.006000 0.010000
v 0.000000 -0.006000 0.010000
v 0.032500 -0.006000 0.003500
v 0.032500 -0.006000 -0.003500
v 0.026000 -0.006000 -0.010000
v 0.031082 -0.006000 -0.007553
v 0.031856 -0.006000 -0.006320
v 0.027446 -0.006000 -0.009837
v 0.028820 -0.006000 -0.009356
v 0.030053 -0.006000 -0.008582
v 0.000000 -0.006000 -0.010000
v 0.032337 -0.006000 -0.004946
v 0.031856 -0.006000 0.006320
v 0.031082 -0.006000 0.007553
v 0.027446 -0.006000 0.009837
v 0.030053 -0.006000 0.008582
v 0.028820 -0.006000 0.009356
v 0.032337 -0.006000 0.004946
v -0.001260 0.004320 0.010000
v -0.002427 0.003790 0.010000
v -0.003397 0.002952 0.010000
v -0.004091 0.001875 0.010000
v -0.004453 0.000645 0.010000
v -0.004455 -0.000636 0.010000
v -0.004095 -0.001866 0.010000
v -0.003402 -0.002945 0.010000
v -0.002434 -0.003785 0.010000
v -0.001269 -0.004317 0.010000
v 0.000000 -0.004500 0.010000
v -0.001260 0.004320 -0.010000
v -0.002427 0.003790 -0.010000
v -0.003397 0.002952 -0.010000
v -0.004091 0.001875 -0.010000
v -0.004453 0.000645 -0.010000
v -0.004455 -0.000636 -0.010000
v -0.004095 -0.001866 -0.010000
v -0.003402 -0.002945 -0.010000
v -0.002434 -0.003785 -0.010000
v -0.001269 -0.004317 -0.010000
v 0.000000 -0.004500 -0.010000
vn -0.0000 1.0000 -0.0000
vn -0.1414 0.9899 -0.0000
vn -0.0942 0.9956 -0.0000
vn -0.1414 0.9900 -0.0000
vn -0.0000 -0.0000 1.0000
vn -0.0000 -0.0000 -1.0000
vn -0.0000 -1.0000 -0.0000
vn -0.3478 0.9376 -0.0000
vn -0.5393 0.8421 -0.0000
vn -0.7548 0.6560 -0.0000
vn -0.9091 0.4166 -0.0000
vn -0.9897 0.1434 -0.0000
vn -0.9899 -0.1414 -0.0000
vn -0.9099 -0.4148 -0.0000
vn -0.7561 -0.6545 -0.0000
vn -0.5409 -0.8411 -0.0000
vn -0.2819 -0.9594 -0.0000
vn -0.1424 -0.9898 -0.0000
vn -1.0000 -0.0000 -0.0000
vn 0.0561 -0.0000 0.9984
vn 0.0561 -0.0000 -0.9984
vn -0.9979 0.0654 -0.0000
vn 0.9984 -0.0000 0.0561
vn 0.9984 -0.0000 -0.0561
vn 0.9749 -0.0000 0.2225
vn 0.9010 -0.0000 0.4339
vn 0.7818 -0.0000 0.6235
vn 0.6235 -0.0000 0.7818
vn 0.4339 -0.0000 0.9010
vn 0.2225 -0.0000 0.9749
vn 0.2225 -0.0000 -0.9749
vn 0.4339 -0.0000 -0.9010
vn 0.6235 -0.0000 -0.7818
vn 0.7818 -0.0000 -0.6235
vn 0.9010 -0.0000 -0.4339
vn 0.9749 -0.0000 -0.2225
vn -0.1305 0.9914 -0.0000
vn -0.2588 0.9659 -0.0000
vn -0.5000 0.8660 -0.0000
vn -0.7071 0.7071 -0.0000
vn -0.8660 0.5000 -0.0000
vn -0.9659 0.2588 -0.0000
s 1
f 1//1 2//1 3//1
f 4//1 5//1 6//2
f 6//2 7//1 4//1
f 4//1 7//1 8//1
f 4//1 8//1 9//1
f 10//1 11//3 5//1
f 5//1 11//3 12//3
f 5//1 12//3 6//2
f 2//1 13//1 3//1
f 3//1 13//1 14//1
f 3//1 14//1 10//1
f 10//1 14//1 15//4
f 10//1 15//4 11//3
f 9//1 16//1 4//1
f 4//1 16//1 17//1
f 4//1 17//1 18//1
f 18//1 19//1 4//1
f 4//1 19//1 20//1
f 4//1 20//1 3//1
f 3//1 20//1 21//1
f 3//1 21//1 22//1
f 22//1 23//1 3//1
f 3//1 23//1 24//1
f 3//1 24//1 1//1
f 11//5 25//5 26//5
f 26//5 25//5 27//5
f 28//5 29//5 30//5
f 30//5 29//5 31//5
f 28//5 32//5 29//5
f 29//5 32//5 33//5
f 29//5 33//5 26//5
f 27//5 34//5 26//5
f 26//5 34//5 35//5
f 26//5 35//5 29//5
f 31//5 29//5 36//5
f 36//5 29//5 37//5
f 36//5 37//5 38//5
f 38//5 39//5 36//5
f 36//5 39//5 40//5
f 36//5 40//5 41//5
f 42//6 12//6 43//6
f 44//6 45//6 43//6
f 43//6 45//6 46//6
f 46//6 47//6 43//6
f 43//6 47//6 48//6
f 43//6 48//6 42//6
f 44//6 49//6 45//6
f 45//6 49//6 50//6
f 45//6 50//6 51//6
f 51//6 52//6 45//6
f 45//6 52//6 53//6
f 45//6 53//6 54//6
f 54//6 53//6 55//6
f 55//6 56//6 54//6
f 54//6 56//6 57//6
f 54//6 57//6 58//6
f 59//7 60//7 61//7
f 61//7 60//7 62//7
f 63//7 64//7 65//7
f 63//7 66//7 64//7
f 64//7 66//7 67//7
f 64//7 67//7 68//7
f 60//7 69//7 62//7
f 62//7 69//7 63//7
f 62//7 63//7 70//7
f 70//7 63//7 65//7
f 71//7 72//7 73//7
f 73//7 72//7 74//7
f 73//7 74//7 75//7
f 59//7 61//7 73//7
f 73//7 61//7 76//7
f 73//7 76//7 71//7
f 77//8 42//8 48//9
f 77//8 48//9 78//9
f 78//9 48//9 47//10
f 78//9 47//10 79//10
f 79//10 47//10 46//11
f 79//10 46//11 80//11
f 80//11 46//11 45//12
f 80//11 45//12 81//12
f 81//12 45//12 54//13
f 81//12 54//13 82//13
f 82//13 54//13 58//14
f 82//13 58//14 83//14
f 83//14 58//14 57//15
f 83//14 57//15 84//15
f 84//15 57//15 56//16
f 84//15 56//16 85//16
f 85//16 56//16 55//17
f 85//16 55//17 86//17
f 86//17 55//17 53//18
f 86//17 53//18 87//18
f 25//8 88//8 89//9
f 25//8 89//9 27//9
f 27//9 89//9 90//10
f 27//9 90//10 34//10
f 34//10 90//10 91//11
f 34//10 91//11 35//11
f 35//11 91//11 92//12
f 35//11 92//12 29//12
f 29//12 92//12 93//13
f 29//12 93//13 37//13
f 37//13 93//13 94//14
f 37//13 94//14 38//14
f 38//14 94//14 95//15
f 38//14 95//15 39//15
f 39//15 95//15 96//16
f 39//15 96//16 40//16
f 40//16 96//16 97//17
f 40//16 97//17 41//17
f 41//17 97//17 98//18
f 41//17 98//18 36//18
f 36//19 98//19 69//19
f 36//19 69//19 53//19
f 53//19 69//19 60//19
f 53//19 60//19 87//19
f 60//5 59//20 87//5
f 87//5 59//20 7//20
f 78//5 79//5 80//5
f 78//5 80//5 77//5
f 77//5 80//5 81//5
f 77//5 81//5 82//5
f 82//5 83//5 77//5
f 77//5 83//5 84//5
f 77//5 84//5 85//5
f 7//20 6//5 87//5
f 87//5 6//5 77//5
f 87//5 77//5 86//5
f 86//5 77//5 85//5
f 63//21 69//6 14//21
f 14//21 69//6 98//6
f 14//21 98//6 15//6
f 15//6 98//6 88//6
f 98//6 97//6 88//6
f 88//6 97//6 96//6
f 88//6 96//6 95//6
f 90//6 89//6 91//6
f 91//6 89//6 88//6
f 91//6 88//6 92//6
f 95//6 94//6 88//6
f 88//6 94//6 93//6
f 88//6 93//6 92//6
f 12//19 11//19 43//22
f 43//22 11//19 26//22
f 61//23 62//24 20//23
f 20//23 62//24 21//24
f 61//23 20//23 19//25
f 61//23 19//25 76//25
f 76//25 19//25 18//26
f 76//25 18//26 71//26
f 71//26 18//26 17//27
f 71//26 17//27 72//27
f 72//27 17//27 16//28
f 72//27 16//28 74//28
f 74//28 16//28 9//29
f 74//28 9//29 75//29
f 75//29 9//29 8//30
f 75//29 8//30 73//30
f 73//30 8//30 7//20
f 73//30 7//20 59//20
f 63//21 14//21 13//31
f 63//21 13//31 66//31
f 66//31 13//31 2//32
f 66//31 2//32 67//32
f 67//32 2//32 1//33
f 67//32 1//33 68//33
f 68//33 1//33 24//34
f 68//33 24//34 64//34
f 64//34 24//34 23//35
f 64//34 23//35 65//35
f 65//35 23//35 22//36
f 65//35 22//36 70//36
f 70//36 22//36 21//24
f 70//36 21//24 62//24
f 36//37 53//37 31//38
f 31//38 53//37 52//38
f 31//38 52//38 30//39
f 30//39 52//38 51//39
f 30//39 51//39 28//40
f 28//40 51//39 50//40
f 28//40 50//40 32//41
f 32//41 50//40 49//41
f 32//41 49//41 33//42
f 33//42 49//41 44//42
f 33//42 44//42 26//22
f 26//22 44//42 43//22
f 5//1 4//1 3//1 10//1
f 11//3 15//4 25//8
f 25//8 15//4 88//8
f 42//8 77//8 12//3
f 12//3 77//8 6//2
