# Blender 4.1.1
# www.blender.org
o f_3_gel
v 0.024100 0.006000 -0.005600
v 0.024100 0.006000 0.005600
v 0.008900 0.006000 0.005600
v 0.008900 0.006000 -0.005600
v 0.024100 0.008500 -0.005600
v 0.024100 0.008500 0.005600
v 0.008900 0.008500 -0.005600
v 0.008900 0.008500 0.005600
vn 1.0000 -0.0000 -0.0000
vn -0.0000 -0.0000 -1.0000
vn -1.0000 -0.0000 -0.0000
vn -0.0000 -0.0000 1.0000
vn -0.0000 1.0000 -0.0000
vn -0.0000 -1.0000 -0.0000
s 1
f 1//1 5//1 2//1
f 2//1 5//1 6//1
f 4//2 7//2 1//2
f 1//2 7//2 5//2
f 3//3 8//3 4//3
f 4//3 8//3 7//3
f 2//4 6//4 3//4
f 3//4 6//4 8//4
f 7//5 8//5 5//5
f 5//5 8//5 6//5
f 3//6 4//6 1//6 2//6
