# Blender 4.1.1
# www.blender.org
o thumb_2_rigid
v 0.008900 -0.008326 0.005600
v 0.006000 -0.008326 0.010000
v 0.008900 -0.008326 -0.005600
v 0.006000 -0.008326 -0.010000
v 0.029858 -0.008326 -0.005600
v 0.032758 -0.008326 -0.010000
v 0.029858 -0.008326 0.005600
v 0.032758 -0.008326 0.010000
v 0.041000 0.004924 0.005000
v 0.041000 0.004924 0.010000
v 0.039553 0.004720 0.005000
v 0.039553 0.004720 0.010000
v 0.038218 0.004126 0.005000
v 0.038218 0.004126 0.010000
v 0.037098 0.003187 0.005000
v 0.037098 0.003187 0.010000
v 0.036281 0.001975 0.005000
v 0.036281 0.001975 0.010000
v 0.035830 0.000586 0.005000
v 0.035830 0.000586 0.010000
v 0.035830 0.000585 -0.005000
v 0.035830 0.000585 -0.010000
v 0.036281 0.001975 -0.005000
v 0.036281 0.001975 -0.010000
v 0.037098 0.003187 -0.005000
v 0.037098 0.003187 -0.010000
v 0.038218 0.004126 -0.005000
v 0.038218 0.004126 -0.010000
v 0.039553 0.004720 -0.005000
v 0.039553 0.004720 -0.010000
v 0.041000 0.004924 -0.005000
v 0.041000 0.004924 -0.010000
v 0.041000 0.004174 -0.005000
v 0.041000 0.004174 0.005000
v 0.042486 0.003921 0.005000
v 0.042486 0.003921 -0.005000
v 0.043806 0.003192 0.005000
v 0.043806 0.003192 -0.005000
v 0.044810 0.002068 0.005000
v 0.044810 0.002068 -0.005000
v 0.045387 0.000675 0.005000
v 0.045387 0.000675 -0.005000
v 0.045472 -0.000830 0.005000
v 0.045472 -0.000830 -0.005000
v 0.045054 -0.002279 0.005000
v 0.045054 -0.002279 -0.005000
v 0.044182 -0.003508 0.005000
v 0.044182 -0.003508 -0.005000
v 0.042952 -0.004381 0.005000
v 0.042952 -0.004381 -0.005000
v 0.041504 -0.004798 0.005000
v 0.041504 -0.004798 -0.005000
v 0.039999 -0.004713 0.005000
v 0.039999 -0.004713 -0.005000
v 0.038606 -0.004136 0.005000
v 0.038606 -0.004136 -0.005000
v 0.037482 -0.003132 0.005000
v 0.037482 -0.003132 -0.005000
v 0.036753 -0.001812 0.005000
v 0.036753 -0.001812 -0.005000
v 0.036500 -0.000326 0.005000
v 0.036500 -0.000326 -0.005000
v 0.035669 -0.000326 -0.005000
v 0.004500 -0.006826 -0.007900
v 0.004500 -0.000326 -0.007900
v -0.001584 -0.004538 -0.007900
v 0.004280 0.001064 -0.007900
v -0.002608 0.003341 -0.007900
v -0.003600 0.002374 -0.007900
v 0.002645 0.003314 -0.007900
v -0.004251 0.001151 -0.007900
v -0.004499 -0.000212 -0.007900
v 0.003641 0.002319 -0.007900
v -0.002790 -0.003857 -0.007900
v 0.001391 0.003954 -0.007900
v 0.000000 0.004174 -0.007900
v -0.001369 0.003961 -0.007900
v -0.004320 -0.001586 -0.007900
v -0.003732 -0.002841 -0.007900
v -0.001584 -0.004538 -0.010000
v -0.002790 -0.003857 -0.010000
v -0.003732 -0.002841 -0.010000
v -0.004320 -0.001586 -0.010000
v -0.004499 -0.000212 -0.010000
v -0.004251 0.001151 -0.010000
v -0.003600 0.002374 -0.010000
v -0.002608 0.003341 -0.010000
v -0.001369 0.003961 -0.010000
v 0.000000 0.004174 -0.010000
v -0.001584 -0.004538 0.007900
v -0.001584 -0.004538 0.010000
v -0.002790 -0.003857 0.010000
v -0.002790 -0.003857 0.007900
v -0.003732 -0.002841 0.010000
v -0.003732 -0.002841 0.007900
v -0.004320 -0.001586 0.010000
v -0.004320 -0.001586 0.007900
v -0.004499 -0.000212 0.010000
v -0.004499 -0.000212 0.007900
v -0.004251 0.001151 0.010000
v -0.004251 0.001151 0.007900
v -0.003600 0.002374 0.010000
v -0.003600 0.002374 0.007900
v -0.002608 0.003341 0.010000
v -0.002608 0.003341 0.007900
v -0.001369 0.003961 0.010000
v -0.001369 0.003961 0.007900
v 0.000000 0.004174 0.010000
v 0.000000 0.004174 0.007900
v 0.000000 0.007674 0.010000
v 0.000000 0.007674 -0.010000
v 0.041000 0.007674 -0.010000
v 0.041000 0.007674 0.010000
v 0.035669 -0.000326 0.005000
v 0.034580 -0.006505 0.010000
v 0.034580 -0.006505 -0.010000
v 0.004500 -0.006826 -0.010000
v 0.004500 -0.006826 0.010000
v 0.004500 -0.006826 0.007900
v 0.004500 -0.000326 0.007900
v 0.003641 0.002319 0.007900
v 0.004280 0.001064 0.007900
v 0.002645 0.003314 0.007900
v 0.001391 0.003954 0.007900
vn -0.0000 -1.0000 -0.0000
vn 0.1392 -0.9903 -0.0000
vn 0.2756 -0.9613 -0.0000
vn 0.5299 -0.8480 -0.0000
vn 0.7431 -0.6691 -0.0000
vn 0.8988 -0.4384 -0.0000
vn 0.9703 -0.2419 -0.0000
vn 0.1675 0.9859 -0.0000
vn 0.3303 0.9439 -0.0000
vn 0.6235 0.7818 -0.0000
vn 0.8467 0.5320 -0.0000
vn 0.9749 0.2225 -0.0000
vn 0.9937 -0.1120 -0.0000
vn 0.9010 -0.4339 -0.0000
vn 0.7071 -0.7071 -0.0000
vn 0.4339 -0.9010 -0.0000
vn 0.1120 -0.9937 -0.0000
vn -0.2225 -0.9749 -0.0000
vn -0.5320 -0.8467 -0.0000
vn -0.7818 -0.6235 -0.0000
vn -0.9439 -0.3303 -0.0000
vn -0.9859 -0.1675 -0.0000
vn -0.0000 -0.0000 -1.0000
vn -0.0000 -0.0000 1.0000
vn -0.4232 -0.9060 -0.0000
vn -0.6200 -0.7846 -0.0000
vn -0.8293 -0.5588 -0.0000
vn -0.9600 -0.2800 -0.0000
vn -0.9997 0.0253 -0.0000
vn -0.9446 0.3282 -0.0000
vn -0.8000 0.6000 -0.0000
vn -0.5796 0.8149 -0.0000
vn -0.3042 0.9526 -0.0000
vn -0.1539 0.9881 -0.0000
vn -1.0000 -0.0000 -0.0000
vn 1.0000 -0.0000 -0.0000
vn 0.9848 -0.1737 -0.0000
vn 0.9848 -0.1736 -0.0000
vn -0.0000 1.0000 -0.0000
vn -0.9969 -0.0785 -0.0000
vn -0.7071 -0.7071 -0.0000
vn -0.5418 -0.8405 -0.0000
vn -0.6008 -0.7994 -0.0000
vn -0.1564 -0.9877 -0.0000
vn -0.3090 -0.9511 -0.0000
vn -0.5878 -0.8090 -0.0000
vn -0.8090 -0.5878 -0.0000
vn -0.9511 -0.3090 -0.0000
s 1
f 1//1 2//1 3//1
f 3//1 2//1 4//1
f 3//1 4//1 5//1
f 5//1 4//1 6//1
f 5//1 6//1 7//1
f 7//1 6//1 8//1
f 7//1 8//1 1//1
f 1//1 8//1 2//1
f 9//2 10//2 11//3
f 11//3 10//2 12//3
f 11//3 12//3 13//4
f 13//4 12//3 14//4
f 13//4 14//4 15//5
f 15//5 14//4 16//5
f 15//5 16//5 17//6
f 17//6 16//5 18//6
f 17//6 18//6 19//7
f 19//7 18//6 20//7
f 21//7 22//7 23//6
f 23//6 22//7 24//6
f 23//6 24//6 25//5
f 25//5 24//6 26//5
f 25//5 26//5 27//4
f 27//4 26//5 28//4
f 27//4 28//4 29//3
f 29//3 28//4 30//3
f 29//3 30//3 31//2
f 31//2 30//3 32//2
f 33//8 34//8 35//9
f 33//8 35//9 36//9
f 36//9 35//9 37//10
f 36//9 37//10 38//10
f 38//10 37//10 39//11
f 38//10 39//11 40//11
f 40//11 39//11 41//12
f 40//11 41//12 42//12
f 42//12 41//12 43//13
f 42//12 43//13 44//13
f 44//13 43//13 45//14
f 44//13 45//14 46//14
f 46//14 45//14 47//15
f 46//14 47//15 48//15
f 48//15 47//15 49//16
f 48//15 49//16 50//16
f 50//16 49//16 51//17
f 50//16 51//17 52//17
f 52//17 51//17 53//18
f 52//17 53//18 54//18
f 54//18 53//18 55//19
f 54//18 55//19 56//19
f 56//19 55//19 57//20
f 56//19 57//20 58//20
f 58//20 57//20 59//21
f 58//20 59//21 60//21
f 60//21 59//21 61//22
f 60//21 61//22 62//22
f 29//23 31//23 33//23
f 63//23 21//23 33//23
f 33//23 21//23 23//23
f 23//23 25//23 33//23
f 33//23 25//23 27//23
f 33//23 27//23 29//23
f 60//23 40//23 58//23
f 58//23 40//23 42//23
f 38//23 40//23 36//23
f 36//23 40//23 60//23
f 36//23 60//23 33//23
f 33//23 60//23 62//23
f 33//23 62//23 63//23
f 48//23 50//23 46//23
f 46//23 50//23 52//23
f 46//23 52//23 54//23
f 42//23 44//23 58//23
f 58//23 44//23 46//23
f 58//23 46//23 56//23
f 56//23 46//23 54//23
f 64//24 65//24 66//24
f 66//24 65//24 67//24
f 68//24 69//24 70//24
f 70//24 69//24 71//24
f 70//24 71//24 72//24
f 67//24 73//24 66//24
f 66//24 73//24 70//24
f 66//24 70//24 74//24
f 75//24 76//24 70//24
f 70//24 76//24 77//24
f 70//24 77//24 68//24
f 72//24 78//24 70//24
f 70//24 78//24 79//24
f 70//24 79//24 74//24
f 80//25 66//25 74//26
f 80//25 74//26 81//26
f 81//26 74//26 79//27
f 81//26 79//27 82//27
f 82//27 79//27 78//28
f 82//27 78//28 83//28
f 83//28 78//28 72//29
f 83//28 72//29 84//29
f 84//29 72//29 71//30
f 84//29 71//30 85//30
f 85//30 71//30 69//31
f 85//30 69//31 86//31
f 86//31 69//31 68//32
f 86//31 68//32 87//32
f 87//32 68//32 77//33
f 87//32 77//33 88//33
f 88//33 77//33 76//34
f 88//33 76//34 89//34
f 90//25 91//25 92//26
f 90//25 92//26 93//26
f 93//26 92//26 94//27
f 93//26 94//27 95//27
f 95//27 94//27 96//28
f 95//27 96//28 97//28
f 97//28 96//28 98//29
f 97//28 98//29 99//29
f 99//29 98//29 100//30
f 99//29 100//30 101//30
f 101//30 100//30 102//31
f 101//30 102//31 103//31
f 103//31 102//31 104//32
f 103//31 104//32 105//32
f 105//32 104//32 106//33
f 105//32 106//33 107//33
f 107//33 106//33 108//34
f 107//33 108//34 109//34
f 109//35 108//35 110//35
f 109//35 110//35 76//35
f 76//35 110//35 111//35
f 76//35 111//35 89//35
f 112//36 113//36 9//36
f 9//36 113//36 10//36
f 32//36 112//36 31//36
f 31//36 112//36 9//36
f 31//36 9//36 33//36
f 33//36 9//36 34//36
f 19//7 20//7 114//37
f 114//37 20//7 115//38
f 114//37 115//38 63//38
f 63//38 115//38 116//38
f 63//38 116//38 21//7
f 21//7 116//38 22//7
f 113//39 112//39 110//39
f 110//39 112//39 111//39
f 112//23 32//23 30//23
f 111//23 26//23 24//23
f 112//23 30//23 111//23
f 111//23 30//23 28//23
f 111//23 28//23 26//23
f 83//23 84//23 82//23
f 82//23 84//23 85//23
f 82//23 85//23 81//23
f 81//23 85//23 80//23
f 80//23 85//23 86//23
f 80//23 86//23 87//23
f 4//23 117//23 89//23
f 89//23 117//23 80//23
f 89//23 80//23 88//23
f 88//23 80//23 87//23
f 24//23 22//23 111//23
f 111//23 22//23 116//23
f 111//23 116//23 89//23
f 89//23 116//23 6//23
f 89//23 6//23 4//23
f 20//24 18//24 110//24
f 20//24 110//24 115//24
f 115//24 110//24 108//24
f 115//24 108//24 8//24
f 18//24 16//24 110//24
f 110//24 16//24 14//24
f 110//24 14//24 113//24
f 113//24 14//24 12//24
f 113//24 12//24 10//24
f 2//24 8//24 118//24
f 118//24 8//24 108//24
f 118//24 108//24 91//24
f 91//24 108//24 106//24
f 91//24 106//24 104//24
f 96//24 94//24 98//24
f 98//24 94//24 100//24
f 104//24 102//24 91//24
f 91//24 102//24 100//24
f 91//24 100//24 92//24
f 92//24 100//24 94//24
f 59//24 57//24 39//24
f 13//24 34//24 11//24
f 11//24 34//24 9//24
f 13//24 15//24 34//24
f 34//24 15//24 17//24
f 34//24 17//24 19//24
f 41//24 39//24 43//24
f 43//24 39//24 57//24
f 43//24 57//24 45//24
f 45//24 57//24 55//24
f 19//24 114//24 34//24
f 34//24 114//24 61//24
f 34//24 61//24 35//24
f 35//24 61//24 59//24
f 35//24 59//24 37//24
f 37//24 59//24 39//24
f 49//24 47//24 51//24
f 51//24 47//24 45//24
f 51//24 45//24 53//24
f 53//24 45//24 55//24
f 63//1 62//1 114//1
f 114//1 62//1 61//1
f 64//35 119//35 65//40
f 65//40 119//35 120//40
f 121//23 122//23 90//23
f 90//23 122//23 120//23
f 90//23 120//23 119//23
f 121//23 90//23 123//23
f 123//23 90//23 93//23
f 123//23 93//23 95//23
f 105//23 123//23 103//23
f 103//23 123//23 101//23
f 95//23 97//23 123//23
f 123//23 97//23 99//23
f 123//23 99//23 101//23
f 105//23 107//23 123//23
f 123//23 107//23 109//23
f 123//23 109//23 124//23
f 2//41 118//42 119//43
f 2//41 119//43 4//41
f 4//41 119//43 64//43
f 4//41 64//43 117//42
f 8//15 6//15 115//15
f 115//15 6//15 116//15
f 109//44 76//44 124//45
f 124//45 76//44 75//45
f 124//45 75//45 123//46
f 123//46 75//45 70//46
f 123//46 70//46 121//47
f 121//47 70//46 73//47
f 121//47 73//47 122//48
f 122//48 73//47 67//48
f 122//48 67//48 120//40
f 120//40 67//48 65//40
f 1//1 3//1 5//1 7//1
f 119//43 118//42 90//25
f 90//25 118//42 91//25
f 66//25 80//25 64//43
f 64//43 80//25 117//42
