# Blender 4.1.1
# www.blender.org
o thumb_3_gel
v 0.023817 -0.008596 -0.006100
v 0.023817 -0.008596 0.006100
v 0.007710 -0.006864 0.006100
v 0.007710 -0.006864 -0.006100
v 0.023550 -0.011082 -0.006100
v 0.007443 -0.009350 -0.006100
v 0.023550 -0.011082 0.006100
v 0.007443 -0.009350 0.006100
v 0.023817 -0.008596 -0.006100
v 0.023817 -0.008596 0.006100
v 0.007710 -0.006864 0.006100
v 0.007710 -0.006864 -0.006100
v 0.023550 -0.011082 -0.006100
v 0.007443 -0.009350 -0.006100
v 0.023550 -0.011082 0.006100
v 0.007443 -0.009350 0.006100
v 0.023817 -0.008596 -0.006100
v 0.023817 -0.008596 0.006100
v 0.007710 -0.006864 0.006100
v 0.007710 -0.006864 -0.006100
v 0.023550 -0.011082 -0.006100
v 0.007443 -0.009350 -0.006100
v 0.023550 -0.011082 0.006100
v 0.007443 -0.009350 0.006100
vn -0.0000 -0.0000 -1.0000
vn 0.9943 -0.1069 -0.0000
vn -0.0000 -0.0000 1.0000
vn -0.9943 0.1069 -0.0000
vn -0.1069 -0.9943 -0.0000
vn 0.1069 0.9943 -0.0000
s 1
f 1//1 5//1 4//1
f 4//1 5//1 6//1
f 2//2 7//2 1//2
f 1//2 7//2 5//2
f 3//3 8//3 2//3
f 2//3 8//3 7//3
f 4//4 6//4 3//4
f 3//4 6//4 8//4
f 7//5 8//5 5//5
f 5//5 8//5 6//5
f 3//6 2//6 1//6 4//6
f 1//3 5//3 13//3 9//3
f 6//3 4//3 12//3 14//3
f 2//3 7//3 15//3 10//3
f 3//3 8//3 16//3 11//3
f 9//3 13//3 21//3 17//3
f 11//3 16//3 24//3 19//3
f 14//3 12//3 20//3 22//3
f 10//3 15//3 23//3 18//3
