# Blender 4.1.1
# www.blender.org
o thumb_3_rigid
v 0.026647 -0.008901 -0.009837
v 0.028013 -0.009048 -0.009356
v 0.023817 -0.008596 -0.006100
v 0.029239 -0.009179 0.008582
v 0.028013 -0.009048 0.009356
v 0.023817 -0.008596 0.006100
v 0.026647 -0.008901 0.009837
v 0.025209 -0.008746 0.010000
v 0.007710 -0.006864 0.006100
v 0.005821 -0.006661 0.010000
v 0.007710 -0.006864 -0.006100
v 0.005821 -0.006661 -0.010000
v 0.025209 -0.008746 -0.010000
v 0.029239 -0.009179 -0.008582
v 0.030262 -0.009289 -0.007553
v 0.031032 -0.009372 -0.006320
v 0.031510 -0.009424 -0.004946
v 0.031672 -0.009441 -0.003500
v 0.031672 -0.009441 0.003500
v 0.031510 -0.009424 0.004946
v 0.031032 -0.009372 0.006320
v 0.030262 -0.009289 0.007553
v 0.004046 -0.004458 -0.007900
v 0.004046 -0.004458 0.007900
v 0.004474 -0.000481 -0.007900
v 0.004474 -0.000481 0.007900
v 0.026493 0.003185 -0.010000
v 0.000642 0.005966 -0.010000
v 0.032955 0.002490 -0.003500
v 0.032955 0.002490 0.003500
v 0.026493 0.003185 0.010000
v 0.031545 0.002642 0.007553
v 0.032315 0.002559 0.006320
v 0.027931 0.003031 0.009837
v 0.029297 0.002884 0.009356
v 0.030522 0.002752 0.008582
v 0.000642 0.005966 0.010000
v 0.032793 0.002508 0.004946
v 0.032315 0.002559 -0.006320
v 0.031545 0.002642 -0.007553
v 0.027931 0.003031 -0.009837
v 0.030522 0.002752 -0.008582
v 0.029297 0.002884 -0.009356
v 0.032793 0.002508 -0.004946
v 0.004046 -0.004458 -0.010000
v 0.004046 -0.004458 0.010000
v -0.004152 -0.001736 -0.007900
v -0.003464 -0.002872 -0.007900
v -0.002474 -0.003759 -0.007900
v -0.004478 -0.000448 -0.007900
v 0.004446 0.000693 -0.007900
v 0.004115 0.001820 -0.007900
v -0.001269 -0.004317 -0.007900
v 0.000047 -0.004500 -0.007900
v 0.003504 0.002823 -0.007900
v 0.002654 0.003634 -0.007900
v 0.001623 0.004197 -0.007900
v -0.003170 0.003194 -0.007900
v -0.003965 0.002129 -0.007900
v -0.002100 0.003980 -0.007900
v -0.000846 0.004420 -0.007900
v 0.000481 0.004474 -0.007900
v -0.004413 0.000879 -0.007900
v 0.000047 -0.004500 -0.010000
v -0.001269 -0.004317 -0.010000
v -0.002474 -0.003759 -0.010000
v -0.003464 -0.002872 -0.010000
v -0.004152 -0.001736 -0.010000
v -0.004478 -0.000448 -0.010000
v -0.004413 0.000879 -0.010000
v -0.003965 0.002129 -0.010000
v -0.003170 0.003194 -0.010000
v -0.002100 0.003980 -0.010000
v -0.000846 0.004420 -0.010000
v 0.000481 0.004474 -0.010000
v 0.000047 -0.004500 0.007900
v 0.000047 -0.004500 0.010000
v -0.001269 -0.004317 0.010000
v -0.001269 -0.004317 0.007900
v -0.002474 -0.003759 0.010000
v -0.002474 -0.003759 0.007900
v -0.003464 -0.002872 0.010000
v -0.003464 -0.002872 0.007900
v -0.004152 -0.001736 0.010000
v -0.004152 -0.001736 0.007900
v -0.004478 -0.000448 0.010000
v -0.004478 -0.000448 0.007900
v -0.004413 0.000879 0.010000
v -0.004413 0.000879 0.007900
v -0.003965 0.002129 0.010000
v -0.003965 0.002129 0.007900
v -0.003170 0.003194 0.010000
v -0.003170 0.003194 0.007900
v -0.002100 0.003980 0.010000
v -0.002100 0.003980 0.007900
v -0.000846 0.004420 0.010000
v -0.000846 0.004420 0.007900
v 0.000481 0.004474 0.010000
v 0.000481 0.004474 0.007900
v 0.001623 0.004197 0.007900
v 0.002654 0.003634 0.007900
v 0.003504 0.002823 0.007900
v 0.004115 0.001820 0.007900
v 0.004446 0.000693 0.007900
vn -0.1069 -0.9943 -0.0000
vn -0.9943 0.1069 -0.0000
vn -0.9991 0.0417 -0.0000
vn 0.1069 0.9943 -0.0000
vn -0.7787 -0.6274 -0.0000
vn -0.0000 -0.0000 1.0000
vn -0.0637 -0.9980 -0.0000
vn -0.2820 -0.9594 -0.0000
vn -0.5499 -0.8353 -0.0000
vn -0.7698 -0.6383 -0.0000
vn -0.9226 -0.3858 -0.0000
vn -0.9950 -0.0996 -0.0000
vn -0.9808 0.1953 -0.0000
vn -0.8810 0.4731 -0.0000
vn -0.7045 0.7097 -0.0000
vn -0.4666 0.8845 -0.0000
vn -0.1880 0.9822 -0.0000
vn -0.0410 0.9992 -0.0000
vn 0.0557 -0.0060 -0.9984
vn -0.0000 -0.0000 -1.0000
vn 0.0558 -0.0060 -0.9984
vn 0.0558 -0.0060 0.9984
vn 0.0557 -0.0060 0.9984
vn 0.9927 -0.1068 -0.0561
vn 0.9693 -0.1043 -0.2225
vn 0.8958 -0.0963 -0.4339
vn 0.7773 -0.0836 -0.6235
vn 0.6199 -0.0667 -0.7818
vn 0.4314 -0.0464 -0.9010
vn 0.2212 -0.0238 -0.9749
vn 0.2212 -0.0238 0.9749
vn 0.4314 -0.0464 0.9010
vn 0.6199 -0.0667 0.7818
vn 0.7773 -0.0836 0.6235
vn 0.8958 -0.0963 0.4339
vn 0.9693 -0.1043 0.2225
vn 0.9927 -0.1068 0.0561
vn -0.2358 -0.9718 -0.0000
vn -0.3606 -0.9327 -0.0000
vn -0.5897 -0.8076 -0.0000
vn -0.9145 -0.4045 -0.0000
vn -0.9881 -0.1540 -0.0000
vn 0.0104 -0.9999 -0.0000
s 1
f 1//1 2//1 3//1
f 4//1 5//1 6//1
f 5//1 7//1 6//1
f 6//1 7//1 8//1
f 6//1 8//1 9//1
f 9//1 8//1 10//1
f 9//1 10//1 11//1
f 11//1 10//1 12//1
f 11//1 12//1 3//1
f 3//1 12//1 13//1
f 3//1 13//1 1//1
f 2//1 14//1 3//1
f 3//1 14//1 15//1
f 3//1 15//1 16//1
f 16//1 17//1 3//1
f 3//1 17//1 18//1
f 3//1 18//1 6//1
f 6//1 18//1 19//1
f 6//1 19//1 20//1
f 20//1 21//1 6//1
f 6//1 21//1 22//1
f 6//1 22//1 4//1
f 23//2 24//2 25//3
f 25//3 24//2 26//3
f 27//4 28//4 29//4
f 29//4 28//4 30//4
f 31//4 32//4 33//4
f 31//4 34//4 32//4
f 32//4 34//4 35//4
f 32//4 35//4 36//4
f 28//4 37//4 30//4
f 30//4 37//4 31//4
f 30//4 31//4 38//4
f 38//4 31//4 33//4
f 39//4 40//4 41//4
f 41//4 40//4 42//4
f 41//4 42//4 43//4
f 27//4 29//4 41//4
f 41//4 29//4 44//4
f 41//4 44//4 39//4
f 23//5 45//5 12//5
f 23//5 12//5 24//5
f 24//5 12//5 10//5
f 24//5 10//5 46//5
f 47//6 48//6 25//6
f 25//6 48//6 49//6
f 47//6 25//6 50//6
f 50//6 25//6 51//6
f 50//6 51//6 52//6
f 49//6 53//6 25//6
f 25//6 53//6 54//6
f 25//6 54//6 23//6
f 52//6 55//6 50//6
f 50//6 55//6 56//6
f 50//6 56//6 57//6
f 58//6 59//6 60//6
f 60//6 59//6 61//6
f 57//6 62//6 50//6
f 50//6 62//6 61//6
f 50//6 61//6 63//6
f 63//6 61//6 59//6
f 64//7 54//7 53//8
f 64//7 53//8 65//8
f 65//8 53//8 49//9
f 65//8 49//9 66//9
f 66//9 49//9 48//10
f 66//9 48//10 67//10
f 67//10 48//10 47//11
f 67//10 47//11 68//11
f 68//11 47//11 50//12
f 68//11 50//12 69//12
f 69//12 50//12 63//13
f 69//12 63//13 70//13
f 70//13 63//13 59//14
f 70//13 59//14 71//14
f 71//14 59//14 58//15
f 71//14 58//15 72//15
f 72//15 58//15 60//16
f 72//15 60//16 73//16
f 73//16 60//16 61//17
f 73//16 61//17 74//17
f 74//17 61//17 62//18
f 74//17 62//18 75//18
f 76//7 77//7 78//8
f 76//7 78//8 79//8
f 79//8 78//8 80//9
f 79//8 80//9 81//9
f 81//9 80//9 82//10
f 81//9 82//10 83//10
f 83//10 82//10 84//11
f 83//10 84//11 85//11
f 85//11 84//11 86//12
f 85//11 86//12 87//12
f 87//12 86//12 88//13
f 87//12 88//13 89//13
f 89//13 88//13 90//14
f 89//13 90//14 91//14
f 91//14 90//14 92//15
f 91//14 92//15 93//15
f 93//15 92//15 94//16
f 93//15 94//16 95//16
f 95//16 94//16 96//17
f 95//16 96//17 97//17
f 97//17 96//17 98//18
f 97//17 98//18 99//18
f 99//2 98//2 37//2
f 99//2 37//2 62//2
f 62//2 37//2 28//2
f 62//2 28//2 75//2
f 13//19 12//20 27//21
f 27//21 12//20 75//20
f 27//21 75//20 28//20
f 12//20 45//20 75//20
f 75//20 45//20 64//20
f 75//20 64//20 65//20
f 65//20 66//20 75//20
f 75//20 66//20 67//20
f 75//20 67//20 68//20
f 68//20 69//20 75//20
f 75//20 69//20 70//20
f 75//20 70//20 71//20
f 71//20 72//20 75//20
f 75//20 72//20 73//20
f 75//20 73//20 74//20
f 46//6 10//6 98//6
f 10//6 8//22 98//6
f 98//6 8//22 31//23
f 98//6 31//23 37//6
f 88//6 86//6 98//6
f 94//6 92//6 90//6
f 86//6 84//6 98//6
f 98//6 84//6 82//6
f 98//6 82//6 80//6
f 80//6 78//6 98//6
f 98//6 78//6 77//6
f 98//6 77//6 46//6
f 88//6 98//6 90//6
f 90//6 98//6 96//6
f 90//6 96//6 94//6
f 85//20 87//20 26//20
f 24//20 76//20 26//20
f 26//20 76//20 79//20
f 99//20 100//20 87//20
f 87//20 100//20 101//20
f 87//20 101//20 102//20
f 102//20 103//20 87//20
f 87//20 103//20 104//20
f 87//20 104//20 26//20
f 79//20 81//20 26//20
f 26//20 81//20 83//20
f 26//20 83//20 85//20
f 87//20 89//20 99//20
f 99//20 89//20 91//20
f 99//20 91//20 97//20
f 97//20 91//20 93//20
f 97//20 93//20 95//20
f 29//24 18//24 17//25
f 29//24 17//25 44//25
f 44//25 17//25 16//26
f 44//25 16//26 39//26
f 39//26 16//26 15//27
f 39//26 15//27 40//27
f 40//27 15//27 14//28
f 40//27 14//28 42//28
f 42//28 14//28 2//29
f 42//28 2//29 43//29
f 43//29 2//29 1//30
f 43//29 1//30 41//30
f 41//30 1//30 13//19
f 41//30 13//19 27//21
f 31//23 8//22 7//31
f 31//23 7//31 34//31
f 34//31 7//31 5//32
f 34//31 5//32 35//32
f 35//32 5//32 4//33
f 35//32 4//33 36//33
f 36//33 4//33 22//34
f 36//33 22//34 32//34
f 32//34 22//34 21//35
f 32//34 21//35 33//35
f 33//35 21//35 20//36
f 33//35 20//36 38//36
f 38//36 20//36 19//37
f 38//36 19//37 30//37
f 99//38 62//38 100//39
f 100//39 62//38 57//39
f 100//39 57//39 101//40
f 101//40 57//39 56//40
f 101//40 56//40 102//5
f 102//5 56//40 55//5
f 102//5 55//5 103//41
f 103//41 55//5 52//41
f 103//41 52//41 104//42
f 104//42 52//41 51//42
f 104//42 51//42 26//3
f 26//3 51//42 25//3
f 9//1 11//1 3//1 6//1
f 29//24 30//37 18//24
f 18//24 30//37 19//37
f 46//43 77//7 24//43
f 24//43 77//7 76//7
f 54//7 64//7 23//43
f 23//43 64//7 45//43
