# Blender 4.3.2
# www.blender.org
mtllib finger.mtl
o finger
v 0.010360 0.026403 0.000155
v 0.010449 0.013878 0.000147
v -0.010387 0.013829 0.000132
v -0.010479 0.016102 0.018988
v -0.010401 0.026309 0.000167
v -0.010389 0.025220 0.019188
v -0.008730 0.011271 0.036165
v 0.010400 0.025253 0.019037
v 0.005840 0.014274 0.053803
v 0.008616 0.013989 0.051328
v 0.010495 0.015103 0.018436
v 0.008693 0.011162 0.050166
v -0.008623 0.011238 0.050953
v -0.005481 0.011204 0.053725
v -0.005278 0.014293 0.053849
v -0.007778 0.014218 0.052366
v -0.008841 0.013918 0.050589
v 0.006138 0.011274 0.053578
v 0.010360 0.026403 0.000155
v 0.010360 0.026403 0.000155
v 0.010449 0.013878 0.000147
v 0.010449 0.013878 0.000147
v -0.010387 0.013829 0.000132
v -0.010387 0.013829 0.000132
v -0.010387 0.013829 0.000132
v -0.010401 0.026309 0.000167
v -0.010401 0.026309 0.000167
v -0.010389 0.025220 0.019188
v -0.010389 0.025220 0.019188
v -0.008730 0.011271 0.036165
v 0.010400 0.025253 0.019037
v 0.010400 0.025253 0.019037
v 0.005840 0.014274 0.053803
v 0.005840 0.014274 0.053803
v 0.005840 0.014274 0.053803
v 0.008616 0.013989 0.051328
v 0.008616 0.013989 0.051328
v 0.008693 0.011162 0.050166
v 0.008693 0.011162 0.050166
v -0.008623 0.011238 0.050953
v -0.008623 0.011238 0.050953
v -0.008623 0.011238 0.050953
v -0.005481 0.011204 0.053725
v -0.005481 0.011204 0.053725
v -0.005278 0.014293 0.053849
v -0.005278 0.014293 0.053849
v -0.007778 0.014218 0.052366
v -0.007778 0.014218 0.052366
v -0.008841 0.013918 0.050589
v -0.008841 0.013918 0.050589
v 0.006138 0.011274 0.053578
v 0.006138 0.011274 0.053578
vn 0.0003 0.0014 -1.0000
vn 0.0007 0.0006 -1.0000
vn -0.0001 0.0021 -1.0000
vn -0.9996 -0.0296 0.0012
vn -0.9951 -0.0961 0.0240
vn -1.0000 0.0043 -0.0018
vn -0.9996 0.0093 0.0268
vn 0.0193 -0.9979 -0.0619
vn 0.0065 -0.9995 -0.0323
vn 0.0024 -0.9975 -0.0709
vn -0.0002 0.9832 0.1824
vn -0.0447 0.9765 0.2109
vn 0.0019 0.9537 0.3007
vn -0.0006 0.0028 -1.0000
vn 0.9983 0.0058 0.0574
vn 0.9906 -0.1331 0.0317
vn 0.9998 0.0078 0.0166
vn 0.9986 -0.0203 0.0484
vn 0.9999 -0.0110 -0.0042
vn -0.8712 -0.4910 0.0052
vn 0.0130 -0.9999 -0.0061
vn -0.0021 -0.9999 0.0108
vn 1.0000 0.0071 -0.0017
vn -0.0027 0.9982 0.0591
vn -0.1087 0.9434 0.3134
vn -0.2190 0.9209 0.3226
vn -0.8227 -0.1002 0.5596
vn -0.5292 -0.0758 0.8451
vn -0.6853 -0.0761 0.7243
vn -0.9947 -0.0942 0.0408
vn 0.3775 0.8677 0.3235
vn -0.0045 0.9984 0.0572
vn -0.9973 -0.0552 0.0476
vn -0.6659 0.6909 0.2815
vn 0.0122 -0.0686 0.9976
vn 0.0050 -0.0456 0.9989
vn 0.0131 -0.0735 0.9972
vn 0.0041 -0.0404 0.9992
vn 0.0065 -0.9993 0.0377
vn 0.6707 -0.0757 0.7379
vn 0.7772 -0.2210 0.5892
vn 0.7853 -0.1358 0.6041
vn -0.0089 -1.0000 -0.0022
vn -0.5102 -0.0010 0.8601
vn 0.6660 0.0102 0.7459
vn -0.8582 -0.0001 0.5134
s 1
f 20//1 22//2 25//3
f 3//4 4//5 27//6
f 27//6 4//5 29//7
f 2//8 30//9 24//10
f 32//11 6//12 35//13
f 25//3 5//14 20//1
f 37//15 11//16 8//17
f 11//16 39//18 21//19
f 37//15 39//18 11//16
f 42//20 23//20 7//20
f 2//8 12//21 30//9
f 12//21 44//22 30//9
f 8//17 11//16 21//19
f 8//17 21//19 1//23
f 32//11 19//24 6//12
f 6//12 46//25 35//13
f 48//26 46//25 6//12
f 40//27 14//28 16//29
f 3//4 13//30 4//5
f 31//31 9//31 36//31
f 19//24 26//32 6//12
f 4//5 50//33 29//7
f 17//34 47//34 28//34
f 34//35 43//36 52//37
f 15//38 43//36 34//35
f 12//21 51//39 44//22
f 18//40 38//41 10//42
f 44//22 41//43 30//9
f 16//29 14//28 45//44
f 13//30 50//33 4//5
f 18//40 10//42 33//45
f 16//29 49//46 40//27
